<svg xmlns="http://www.w3.org/2000/svg" viewBox="0 0 320 200" fill="none">
  <defs>
    <linearGradient id="blueGrad" x1="0%" y1="0%" x2="100%" y2="100%">
      <stop offset="0%" stop-color="#2B8CFF"/>
      <stop offset="100%" stop-color="#1E5FD9"/>
    </linearGradient>
  </defs>
  <!-- Orbit ring -->
  <ellipse cx="160" cy="78" rx="72" ry="28" stroke="url(#blueGrad)" stroke-width="5" transform="rotate(-18 160 78)"/>
  <!-- Alien head -->
  <path d="M118 62 C118 38 142 24 160 24 C178 24 202 38 202 62 C202 82 190 96 160 96 C130 96 118 82 118 62Z" fill="#0a0a0a" stroke="#fff" stroke-width="4"/>
  <ellipse cx="144" cy="58" rx="14" ry="18" fill="#2B8CFF"/>
  <ellipse cx="176" cy="58" rx="14" ry="18" fill="#2B8CFF"/>
  <ellipse cx="146" cy="54" rx="5" ry="7" fill="#8ec8ff" opacity=".6"/>
  <ellipse cx="178" cy="54" rx="5" ry="7" fill="#8ec8ff" opacity=".6"/>
  <!-- Rocket -->
  <g transform="translate(188 18) rotate(32)">
    <path d="M0 52 L18 0 L36 52 Z" fill="#fff"/>
    <circle cx="18" cy="30" r="7" fill="#0a0a0a"/>
    <path d="M4 52 L18 68 L32 52 Z" fill="#FF8C00"/>
    <path d="M8 52 L18 62 L28 52 Z" fill="#FFB347"/>
  </g>
  <!-- Text -->
  <text x="160" y="138" text-anchor="middle" fill="#fff" font-family="Arial Black, sans-serif" font-size="22" font-weight="900" font-style="italic" letter-spacing="2">A VER SI</text>
  <text x="160" y="178" text-anchor="middle" fill="url(#blueGrad)" font-family="Arial Black, sans-serif" font-size="42" font-weight="900" font-style="italic" letter-spacing="1">SALE</text>
  <line x1="72" y1="148" x2="118" y2="148" stroke="#2B8CFF" stroke-width="2"/>
  <line x1="202" y1="168" x2="248" y2="168" stroke="#2B8CFF" stroke-width="2"/>
</svg>
